<svg width="64" height="64" viewBox="0 0 64 64" fill="none" xmlns="http://www.w3.org/2000/svg">
  <defs>
    <linearGradient id="bg" x1="12" y1="6" x2="52" y2="58" gradientUnits="userSpaceOnUse">
      <stop stop-color="#34D399" />
      <stop offset="1" stop-color="#059669" />
    </linearGradient>
    <linearGradient id="doc" x1="24" y1="16" x2="40" y2="48" gradientUnits="userSpaceOnUse">
      <stop stop-color="#F8FAFC" />
      <stop offset="1" stop-color="#E2E8F0" />
    </linearGradient>
  </defs>
  <rect x="6" y="6" width="52" height="52" rx="14" fill="url(#bg)" />
  <path d="M24 17c0-1.657 1.343-3 3-3h10l7 7v26c0 1.657-1.343 3-3 3H27c-1.657 0-3-1.343-3-3V17Z" fill="url(#doc)" />
  <path d="M37 14v6c0 1.657 1.343 3 3 3h6" fill="#DCFCE7" />
  <path d="M22 31h12" stroke="#10B981" stroke-width="2" stroke-linecap="round" />
  <path d="M22 38h8" stroke="#10B981" stroke-width="2" stroke-linecap="round" />
  <path d="M30 45h-8" stroke="#10B981" stroke-width="2" stroke-linecap="round" />
  <path d="M33.75 41.5 38 45.75l8.25-8.25" stroke="#16A34A" stroke-width="3" stroke-linecap="round" stroke-linejoin="round" />
</svg>
